<svg id="visual" viewBox="0 0 960 150" width="960" height="150" xmlns="http://www.w3.org/2000/svg" xmlns:xlink="http://www.w3.org/1999/xlink" version="1.1"><rect x="0" y="0" width="960" height="150" fill="#ffffff"></rect><path d="M0 140L69 140L137 97L206 121L274 117L343 107L411 142L480 99L549 115L617 140L686 117L754 117L823 119L891 119L960 135L960 0L891 0L823 0L754 0L686 0L617 0L549 0L480 0L411 0L343 0L274 0L206 0L137 0L69 0L0 0Z" fill="#224162"></path><path d="M0 110L69 126L137 87L206 95L274 103L343 125L411 94L480 113L549 109L617 114L686 96L754 91L823 91L891 114L960 114L960 0L891 0L823 0L754 0L686 0L617 0L549 0L480 0L411 0L343 0L274 0L206 0L137 0L69 0L0 0Z" fill="#325474"></path><path d="M0 89L69 88L137 71L206 72L274 106L343 73L411 104L480 97L549 112L617 81L686 85L754 100L823 74L891 78L960 91L960 0L891 0L823 0L754 0L686 0L617 0L549 0L480 0L411 0L343 0L274 0L206 0L137 0L69 0L0 0Z" fill="#426987"></path><path d="M0 83L69 82L137 67L206 75L274 91L343 86L411 55L480 65L549 86L617 93L686 96L754 91L823 61L891 55L960 83L960 0L891 0L823 0L754 0L686 0L617 0L549 0L480 0L411 0L343 0L274 0L206 0L137 0L69 0L0 0Z" fill="#547d9a"></path><path d="M0 47L69 65L137 43L206 42L274 47L343 60L411 63L480 51L549 47L617 58L686 59L754 68L823 76L891 80L960 58L960 0L891 0L823 0L754 0L686 0L617 0L549 0L480 0L411 0L343 0L274 0L206 0L137 0L69 0L0 0Z" fill="#6793ac"></path><path d="M0 62L69 38L137 40L206 37L274 35L343 34L411 31L480 39L549 46L617 34L686 62L754 57L823 64L891 40L960 40L960 0L891 0L823 0L754 0L686 0L617 0L549 0L480 0L411 0L343 0L274 0L206 0L137 0L69 0L0 0Z" fill="#7aa8bf"></path><path d="M0 37L69 15L137 33L206 39L274 40L343 27L411 32L480 34L549 33L617 30L686 46L754 23L823 17L891 18L960 36L960 0L891 0L823 0L754 0L686 0L617 0L549 0L480 0L411 0L343 0L274 0L206 0L137 0L69 0L0 0Z" fill="#8fbfd2"></path><path d="M0 15L69 13L137 17L206 30L274 14L343 11L411 15L480 26L549 27L617 12L686 10L754 21L823 15L891 20L960 28L960 0L891 0L823 0L754 0L686 0L617 0L549 0L480 0L411 0L343 0L274 0L206 0L137 0L69 0L0 0Z" fill="#a5d5e5"></path></svg>