<svg id="visual" viewBox="0 0 900 300" width="900" height="300" xmlns="http://www.w3.org/2000/svg" xmlns:xlink="http://www.w3.org/1999/xlink" version="1.1"><rect x="0" y="0" width="900" height="300" fill="#001220"></rect><path d="M0 148L21.5 142.8C43 137.7 86 127.3 128.8 125.3C171.7 123.3 214.3 129.7 257.2 126.7C300 123.7 343 111.3 385.8 106C428.7 100.7 471.3 102.3 514.2 103.3C557 104.3 600 104.7 642.8 105.7C685.7 106.7 728.3 108.3 771.2 112.2C814 116 857 122 878.5 125L900 128L900 0L878.5 0C857 0 814 0 771.2 0C728.3 0 685.7 0 642.8 0C600 0 557 0 514.2 0C471.3 0 428.7 0 385.8 0C343 0 300 0 257.2 0C214.3 0 171.7 0 128.8 0C86 0 43 0 21.5 0L0 0Z" fill="#001220"></path><path d="M0 119L21.5 113C43 107 86 95 128.8 91.2C171.7 87.3 214.3 91.7 257.2 93.7C300 95.7 343 95.3 385.8 95C428.7 94.7 471.3 94.3 514.2 97.5C557 100.7 600 107.3 642.8 108.2C685.7 109 728.3 104 771.2 98.8C814 93.7 857 88.3 878.5 85.7L900 83L900 0L878.5 0C857 0 814 0 771.2 0C728.3 0 685.7 0 642.8 0C600 0 557 0 514.2 0C471.3 0 428.7 0 385.8 0C343 0 300 0 257.2 0C214.3 0 171.7 0 128.8 0C86 0 43 0 21.5 0L0 0Z" fill="#263c4c"></path><path d="M0 60L21.5 60.2C43 60.3 86 60.7 128.8 66.3C171.7 72 214.3 83 257.2 81.8C300 80.7 343 67.3 385.8 60.7C428.7 54 471.3 54 514.2 57.7C557 61.3 600 68.7 642.8 70.3C685.7 72 728.3 68 771.2 71.3C814 74.7 857 85.3 878.5 90.7L900 96L900 0L878.5 0C857 0 814 0 771.2 0C728.3 0 685.7 0 642.8 0C600 0 557 0 514.2 0C471.3 0 428.7 0 385.8 0C343 0 300 0 257.2 0C214.3 0 171.7 0 128.8 0C86 0 43 0 21.5 0L0 0Z" fill="#4d6b7d"></path><path d="M0 51L21.5 49.3C43 47.7 86 44.3 128.8 44C171.7 43.7 214.3 46.3 257.2 47.3C300 48.3 343 47.7 385.8 47.7C428.7 47.7 471.3 48.3 514.2 46.7C557 45 600 41 642.8 42.2C685.7 43.3 728.3 49.7 771.2 54.3C814 59 857 62 878.5 63.5L900 65L900 0L878.5 0C857 0 814 0 771.2 0C728.3 0 685.7 0 642.8 0C600 0 557 0 514.2 0C471.3 0 428.7 0 385.8 0C343 0 300 0 257.2 0C214.3 0 171.7 0 128.8 0C86 0 43 0 21.5 0L0 0Z" fill="#779eb0"></path><path d="M0 17L21.5 18.8C43 20.7 86 24.3 128.8 25C171.7 25.7 214.3 23.3 257.2 22.2C300 21 343 21 385.8 24.3C428.7 27.7 471.3 34.3 514.2 36.3C557 38.3 600 35.7 642.8 35.3C685.7 35 728.3 37 771.2 38C814 39 857 39 878.5 39L900 39L900 0L878.5 0C857 0 814 0 771.2 0C728.3 0 685.7 0 642.8 0C600 0 557 0 514.2 0C471.3 0 428.7 0 385.8 0C343 0 300 0 257.2 0C214.3 0 171.7 0 128.8 0C86 0 43 0 21.5 0L0 0Z" fill="#a5d5e5"></path></svg>