<svg id="visual" viewBox="0 0 960 150" width="960" height="150" xmlns="http://www.w3.org/2000/svg" xmlns:xlink="http://www.w3.org/1999/xlink" version="1.1"><path d="M0 58L26.7 55.8C53.3 53.7 106.7 49.3 160 44.3C213.3 39.3 266.7 33.7 320 35.7C373.3 37.7 426.7 47.3 480 46.7C533.3 46 586.7 35 640 29C693.3 23 746.7 22 800 33.2C853.3 44.3 906.7 67.7 933.3 79.3L960 91L960 0L933.3 0C906.7 0 853.3 0 800 0C746.7 0 693.3 0 640 0C586.7 0 533.3 0 480 0C426.7 0 373.3 0 320 0C266.7 0 213.3 0 160 0C106.7 0 53.3 0 26.7 0L0 0Z" fill="#a5d5e5"></path><path d="M0 82L26.7 82.3C53.3 82.7 106.7 83.3 160 81.7C213.3 80 266.7 76 320 78.5C373.3 81 426.7 90 480 88.7C533.3 87.3 586.7 75.7 640 63.8C693.3 52 746.7 40 800 45.3C853.3 50.7 906.7 73.3 933.3 84.7L960 96L960 89L933.3 77.3C906.7 65.7 853.3 42.3 800 31.2C746.7 20 693.3 21 640 27C586.7 33 533.3 44 480 44.7C426.7 45.3 373.3 35.7 320 33.7C266.7 31.7 213.3 37.3 160 42.3C106.7 47.3 53.3 51.7 26.7 53.8L0 56Z" fill="#c4e3ee"></path><path d="M0 104L26.7 103.7C53.3 103.3 106.7 102.7 160 98C213.3 93.3 266.7 84.7 320 91.2C373.3 97.7 426.7 119.3 480 120.8C533.3 122.3 586.7 103.7 640 89.2C693.3 74.7 746.7 64.3 800 69.3C853.3 74.3 906.7 94.7 933.3 104.8L960 115L960 94L933.3 82.7C906.7 71.3 853.3 48.7 800 43.3C746.7 38 693.3 50 640 61.8C586.7 73.7 533.3 85.3 480 86.7C426.7 88 373.3 79 320 76.5C266.7 74 213.3 78 160 79.7C106.7 81.3 53.3 80.7 26.7 80.3L0 80Z" fill="#e2f1f6"></path><path d="M0 151L26.7 151C53.3 151 106.7 151 160 151C213.3 151 266.7 151 320 151C373.3 151 426.7 151 480 151C533.3 151 586.7 151 640 151C693.3 151 746.7 151 800 151C853.3 151 906.7 151 933.3 151L960 151L960 113L933.3 102.8C906.7 92.7 853.3 72.3 800 67.3C746.7 62.3 693.3 72.7 640 87.2C586.7 101.7 533.3 120.3 480 118.8C426.7 117.3 373.3 95.7 320 89.2C266.7 82.7 213.3 91.3 160 96C106.7 100.7 53.3 101.3 26.7 101.7L0 102Z" fill="#ffffff"></path></svg>